<mxfile host="app.diagrams.net" agent="Mozilla/5.0 (Windows NT 10.0; Win64; x64) AppleWebKit/537.36 (KHTML, like Gecko) Chrome/130.0.0.0 Safari/537.36" version="24.8.3">
  <diagram name="Page-1" id="ijUzDKkLKUqxFOT0-KLa">
    <mxGraphModel dx="1366" dy="735" grid="1" gridSize="10" guides="1" tooltips="1" connect="1" arrows="1" fold="1" page="1" pageScale="1" pageWidth="827" pageHeight="1169" math="0" shadow="0">
      <root>
        <mxCell id="0" />
        <mxCell id="1" parent="0" />
        <mxCell id="6gHDIM95uDrI7VWM4OMZ-1" value="" style="shape=cylinder3;whiteSpace=wrap;html=1;boundedLbl=1;backgroundOutline=1;size=15;" vertex="1" parent="1">
          <mxGeometry x="360" y="690" width="60" height="80" as="geometry" />
        </mxCell>
        <mxCell id="6gHDIM95uDrI7VWM4OMZ-2" value="MongoDB" style="text;html=1;align=center;verticalAlign=middle;resizable=0;points=[];autosize=1;strokeColor=none;fillColor=none;" vertex="1" parent="1">
          <mxGeometry x="350" y="780" width="80" height="30" as="geometry" />
        </mxCell>
        <mxCell id="6gHDIM95uDrI7VWM4OMZ-7" style="edgeStyle=orthogonalEdgeStyle;rounded=0;orthogonalLoop=1;jettySize=auto;html=1;exitX=0.5;exitY=1;exitDx=0;exitDy=0;" edge="1" parent="1" source="6gHDIM95uDrI7VWM4OMZ-3" target="6gHDIM95uDrI7VWM4OMZ-4">
          <mxGeometry relative="1" as="geometry" />
        </mxCell>
        <mxCell id="6gHDIM95uDrI7VWM4OMZ-8" style="edgeStyle=orthogonalEdgeStyle;rounded=0;orthogonalLoop=1;jettySize=auto;html=1;exitX=0.5;exitY=1;exitDx=0;exitDy=0;" edge="1" parent="1" source="6gHDIM95uDrI7VWM4OMZ-3" target="6gHDIM95uDrI7VWM4OMZ-5">
          <mxGeometry relative="1" as="geometry" />
        </mxCell>
        <mxCell id="6gHDIM95uDrI7VWM4OMZ-9" style="edgeStyle=orthogonalEdgeStyle;rounded=0;orthogonalLoop=1;jettySize=auto;html=1;exitX=0.5;exitY=0;exitDx=0;exitDy=0;entryX=0.5;entryY=1;entryDx=0;entryDy=0;" edge="1" parent="1" source="6gHDIM95uDrI7VWM4OMZ-3" target="6gHDIM95uDrI7VWM4OMZ-6">
          <mxGeometry relative="1" as="geometry" />
        </mxCell>
        <mxCell id="6gHDIM95uDrI7VWM4OMZ-3" value="Api Gateway" style="rounded=1;whiteSpace=wrap;html=1;" vertex="1" parent="1">
          <mxGeometry x="330" y="370" width="120" height="60" as="geometry" />
        </mxCell>
        <mxCell id="6gHDIM95uDrI7VWM4OMZ-4" value="Users" style="rounded=1;whiteSpace=wrap;html=1;" vertex="1" parent="1">
          <mxGeometry x="210" y="520" width="120" height="60" as="geometry" />
        </mxCell>
        <mxCell id="6gHDIM95uDrI7VWM4OMZ-14" style="edgeStyle=orthogonalEdgeStyle;rounded=0;orthogonalLoop=1;jettySize=auto;html=1;exitX=0.75;exitY=0;exitDx=0;exitDy=0;" edge="1" parent="1" source="6gHDIM95uDrI7VWM4OMZ-5">
          <mxGeometry relative="1" as="geometry">
            <mxPoint x="400" y="430" as="targetPoint" />
            <mxPoint x="540" y="510" as="sourcePoint" />
            <Array as="points">
              <mxPoint x="520" y="520" />
              <mxPoint x="520" y="470" />
              <mxPoint x="400" y="470" />
            </Array>
          </mxGeometry>
        </mxCell>
        <mxCell id="6gHDIM95uDrI7VWM4OMZ-5" value="Expenses" style="rounded=1;whiteSpace=wrap;html=1;" vertex="1" parent="1">
          <mxGeometry x="450" y="520" width="120" height="60" as="geometry" />
        </mxCell>
        <mxCell id="6gHDIM95uDrI7VWM4OMZ-17" style="edgeStyle=orthogonalEdgeStyle;rounded=0;orthogonalLoop=1;jettySize=auto;html=1;exitX=0.621;exitY=0.964;exitDx=0;exitDy=0;exitPerimeter=0;" edge="1" parent="1" source="6gHDIM95uDrI7VWM4OMZ-6">
          <mxGeometry relative="1" as="geometry">
            <mxPoint x="404" y="369" as="targetPoint" />
          </mxGeometry>
        </mxCell>
        <mxCell id="6gHDIM95uDrI7VWM4OMZ-6" value="Front-end" style="rounded=1;whiteSpace=wrap;html=1;" vertex="1" parent="1">
          <mxGeometry x="330" y="230" width="120" height="60" as="geometry" />
        </mxCell>
        <mxCell id="6gHDIM95uDrI7VWM4OMZ-10" style="edgeStyle=orthogonalEdgeStyle;rounded=0;orthogonalLoop=1;jettySize=auto;html=1;exitX=0.5;exitY=1;exitDx=0;exitDy=0;entryX=0;entryY=0;entryDx=0;entryDy=52.5;entryPerimeter=0;" edge="1" parent="1" source="6gHDIM95uDrI7VWM4OMZ-4" target="6gHDIM95uDrI7VWM4OMZ-1">
          <mxGeometry relative="1" as="geometry" />
        </mxCell>
        <mxCell id="6gHDIM95uDrI7VWM4OMZ-11" style="edgeStyle=orthogonalEdgeStyle;rounded=0;orthogonalLoop=1;jettySize=auto;html=1;exitX=0.5;exitY=1;exitDx=0;exitDy=0;entryX=1;entryY=0;entryDx=0;entryDy=52.5;entryPerimeter=0;" edge="1" parent="1" source="6gHDIM95uDrI7VWM4OMZ-5" target="6gHDIM95uDrI7VWM4OMZ-1">
          <mxGeometry relative="1" as="geometry" />
        </mxCell>
        <mxCell id="6gHDIM95uDrI7VWM4OMZ-12" style="edgeStyle=orthogonalEdgeStyle;rounded=0;orthogonalLoop=1;jettySize=auto;html=1;exitX=1;exitY=0.5;exitDx=0;exitDy=0;exitPerimeter=0;entryX=0.406;entryY=1.036;entryDx=0;entryDy=0;entryPerimeter=0;" edge="1" parent="1" source="6gHDIM95uDrI7VWM4OMZ-1" target="6gHDIM95uDrI7VWM4OMZ-5">
          <mxGeometry relative="1" as="geometry" />
        </mxCell>
        <mxCell id="6gHDIM95uDrI7VWM4OMZ-13" style="edgeStyle=orthogonalEdgeStyle;rounded=0;orthogonalLoop=1;jettySize=auto;html=1;exitX=0;exitY=0.5;exitDx=0;exitDy=0;exitPerimeter=0;entryX=0.565;entryY=1.067;entryDx=0;entryDy=0;entryPerimeter=0;" edge="1" parent="1" source="6gHDIM95uDrI7VWM4OMZ-1" target="6gHDIM95uDrI7VWM4OMZ-4">
          <mxGeometry relative="1" as="geometry" />
        </mxCell>
        <mxCell id="6gHDIM95uDrI7VWM4OMZ-15" style="edgeStyle=orthogonalEdgeStyle;rounded=0;orthogonalLoop=1;jettySize=auto;html=1;exitX=0.25;exitY=0;exitDx=0;exitDy=0;" edge="1" parent="1" source="6gHDIM95uDrI7VWM4OMZ-4">
          <mxGeometry relative="1" as="geometry">
            <mxPoint x="378" y="434" as="targetPoint" />
            <Array as="points">
              <mxPoint x="260" y="520" />
              <mxPoint x="260" y="470" />
              <mxPoint x="378" y="470" />
            </Array>
          </mxGeometry>
        </mxCell>
      </root>
    </mxGraphModel>
  </diagram>
</mxfile>
